HIERARCHY
ROOT pelvis
{
  OFFSET 0 100 0
  CHANNELS 6 Xposition Yposition Zposition Zrotation Xrotation Yrotation
  JOINT pelvis_right_femur
  {
    OFFSET -10.78128 -3.44521 -0.5502486
    CHANNELS 3 Zrotation Xrotation Yrotation
    JOINT right_femur_tibia
    {
      OFFSET -0.8047443 -44.0398 -0.1307829
      CHANNELS 3 Zrotation Xrotation Yrotation
      JOINT right_tibia_foot
      {
        OFFSET 3.006224 -47.83518 -5
        CHANNELS 3 Zrotation Xrotation Yrotation
        End Site
        {
          OFFSET 0 -5 15
        }
      }
    }
  }
  JOINT pelvis_left_femur
  {
    OFFSET 10.78128 -3.44521 -0.5502486
    CHANNELS 3 Zrotation Xrotation Yrotation
    JOINT left_femur_tibia
    {
      OFFSET 0.8047443 -44.0398 -0.1307829
      CHANNELS 3 Zrotation Xrotation Yrotation
      JOINT left_tibia_foot
      {
        OFFSET -4.370144 -48.10324 -4.275266
        CHANNELS 3 Zrotation Xrotation Yrotation
        End Site
        {
          OFFSET 0 -5 15
        }
      }
    }
  }
  JOINT pelvis_spine1
  {
    OFFSET 0 6.468898 -3.129235
    CHANNELS 3 Zrotation Xrotation Yrotation
    JOINT spine1
    {
      OFFSET 0 23.15396 4.99043
      CHANNELS 3 Zrotation Xrotation Yrotation
      JOINT spine2
      {
        OFFSET 0 20.79997 -5.064912
        CHANNELS 3 Zrotation Xrotation Yrotation
        JOINT neck
        {
          OFFSET 0 14.38658 9.616178
          CHANNELS 3 Zrotation Xrotation Yrotation
          End Site
          {
            OFFSET 0 20 0
          }
        }
      }
      JOINT right_manubrium
      {
        OFFSET -5.722621 16.35077 3.967754
        CHANNELS 3 Zrotation Xrotation Yrotation
        JOINT right_clavicle
        {
          OFFSET -13.16364 1.694482 -4.693211
          CHANNELS 3 Zrotation Xrotation Yrotation
          JOINT right_humerus
          {
            OFFSET -28.5034 -0.3100689 -2.792744
            CHANNELS 3 Zrotation Xrotation Yrotation
            JOINT right_radius
            {
              OFFSET -25.15693 0.02248979 -1.271978
              CHANNELS 3 Zrotation Xrotation Yrotation
              End Site
              {
                OFFSET -15 0 0
              }
            }
          }
        }
      }
      JOINT left_manubrium
      {
        OFFSET 5.722621 16.35077 3.967754
        CHANNELS 3 Zrotation Xrotation Yrotation
        JOINT left_clavicle
        {
          OFFSET 13.16364 1.694482 -4.693211
          CHANNELS 3 Zrotation Xrotation Yrotation
          JOINT left_humerus
          {
            OFFSET 29.39168 -1.063119 -2.237045
            CHANNELS 3 Zrotation Xrotation Yrotation
            JOINT left_radius
            {
              OFFSET 24.59957 -0.9528479 0.9047498
              CHANNELS 3 Zrotation Xrotation Yrotation
              End Site
              {
                OFFSET 15 -0 -0
              }
            }
          }
        }
      }
    }
  }
}
MOTION
Frames: 11
Frame Time: 0.0416666666667
1167.687 91.83781 2716.521 5.04076 -3.957296 51.35726 4.44983 -21.03135 4.106843 -0 17.19245 -0 0.2255788 -3.540469 -9.99421 -3.345209 18.43604 -8.211668 -0 36.21816 -0 -7.833162 -13.38087 12.59343 -1.421699 -0.6045173 1.993283 1.529544 9.599269 -7.728396 2.723605 21.86912 4.942527 2.022139 -16.02749 7.378868 2.858239 -11.57343 9.987601 90.68636 26.23215 -22.68699 -0 0 5.650751 -17.95582 15.19622 7.402627 6.653788 -21.64713 -3.930967 -81.20985 21.56461 2.347587 0 0 -25.19556 4.061974 9.654233 8.049779
1172.832 92.66125 2721.49 5.136184 -4.667981 50.90795 5.687938 -17.19384 5.304594 -0 18.65382 -0 -0.5521886 -4.259271 -9.376155 -2.890671 14.90888 -7.735248 -0 45.94648 -0 -8.252588 -10.23061 13.09828 -0.9574853 -0.3597929 2.538893 1.807237 10.09016 -7.5488 2.620759 22.01163 4.657919 2.20714 -16.25551 6.804506 3.589647 -11.96837 10.36653 89.56269 26.29612 -21.74305 -0 0 5.946454 -16.81245 13.96066 7.153078 5.809713 -21.22324 -3.783009 -82.56555 21.52781 4.513611 0 0 -22.97741 3.918428 9.290171 8.217377
1177.82 93.90026 2726.257 5.292873 -4.925247 50.14922 6.142991 -12.75139 5.947646 -0 18.31417 -0 -1.145225 -4.728378 -8.471405 -2.743701 9.619316 -6.915312 -0 54.09605 -0 -8.356136 -7.811645 13.60823 -0.8160584 -0.009447466 3.565388 1.992632 10.71925 -7.303245 2.382427 22.01903 4.575899 2.531745 -16.5157 6.156714 4.295694 -12.83172 10.87531 88.16164 26.53603 -20.59729 -0 0 6.970709 -16.3952 12.84164 7.507608 5.132486 -20.98419 -3.678534 -84.10761 21.1989 7.311123 0 0 -21.29804 3.57299 8.460521 8.857853
1182.66 95.29321 2730.798 5.405427 -4.787591 49.18623 6.059217 -8.005077 6.223743 -0 16.70209 -0 -1.434656 -4.865565 -7.316068 -2.654459 3.120809 -5.812713 -0 59.65613 -0 -8.186439 -6.168546 14.15117 -0.8961257 0.3206174 4.906143 2.066484 11.45891 -7.028611 2.053689 21.82892 4.662175 2.94926 -16.91148 5.493094 4.860557 -14.14097 11.45483 86.56854 26.79552 -19.26419 -0 0 8.743619 -16.65409 11.93086 8.307589 4.668213 -20.89966 -3.59035 -85.7337 20.64391 10.56584 0 0 -20.23616 3.082404 7.204856 9.8702
1187.374 96.549 2735.124 5.56717 -4.475712 48.13363 5.60898 -3.077017 6.279937 -0 14.62762 -0 -1.379842 -5.162015 -6.076721 -2.38685 -3.963871 -4.542228 -0 61.6697 -0 -7.83519 -5.401146 14.91598 -1.114507 0.6077763 6.31305 1.958763 12.11477 -6.639461 1.763966 21.59128 4.833719 3.326421 -17.25234 4.985689 5.07414 -15.69417 11.97011 84.88728 26.8116 -17.54772 -0 0 11.20365 -17.52568 11.32201 9.322957 4.428572 -20.80044 -3.490096 -87.29938 20.11751 13.79771 0 0 -19.53236 2.464984 5.882408 11.04465
1191.979 97.35956 2739.251 5.855222 -4.253964 47.09137 4.987634 1.874596 6.249421 -0 12.86602 -0 -0.9427132 -6.283623 -4.97262 -1.737075 -10.93145 -3.254087 -0 59.04932 -0 -7.410854 -5.581046 16.05797 -1.368948 0.8805406 7.484889 1.612218 12.42975 -6.033345 1.62517 21.47865 5.00006 3.505928 -17.28657 4.796477 4.75143 -17.26439 12.28691 83.20106 26.27488 -15.19711 -0 0 14.2703 -18.89525 11.04799 10.37989 4.409397 -20.44889 -3.366241 -88.72429 19.91918 16.56892 0 0 -18.73124 1.65372 4.950451 12.18492
1196.508 97.46298 2743.197 6.167406 -4.300423 46.12121 4.431732 6.534453 6.245734 -0 12.00308 -0 -0.08038397 -8.698773 -4.127088 -0.6003781 -17.04391 -2.179773 -0 51.257 -0 -7.09677 -6.514067 17.42623 -1.485932 1.179822 8.161526 1.044118 12.20257 -5.192214 1.652558 21.54695 5.099279 3.359402 -16.92128 4.987412 3.895775 -18.71824 12.34975 81.58809 25.04903 -12.12159 -0 0 17.84232 -20.53883 11.03022 11.42656 4.519886 -19.61093 -3.261176 -90.01202 20.24163 18.78396 0 0 -17.43635 0.5192769 4.704089 13.27627
1201.075 96.79251 2747.02 6.195444 -4.541328 45.22796 4.080978 10.50007 6.366722 -0 12.32884 -0 1.238685 -12.09889 -3.378949 0.8689982 -21.80192 -1.627095 -0 39.79736 -0 -7.143501 -7.579873 18.47651 -1.250914 1.453718 8.374154 0.3422089 11.5003 -4.240787 1.763995 21.63004 5.170037 2.909946 -16.40366 5.512132 2.821354 -20.09201 12.23283 80.15816 23.52029 -8.679011 -0 0 21.70508 -22.27503 11.27842 12.50168 4.58253 -18.25646 -3.253358 -91.20133 20.93515 20.85995 0 0 -15.77199 -0.8966156 5.025958 14.48505
1205.904 95.60233 2750.856 5.747877 -4.651068 44.40017 3.731942 13.57845 6.663981 -0 14.02331 -0 3.050126 -15.00933 -2.412712 2.094705 -25.16622 -1.843572 -0 28.98737 -0 -7.620719 -8.082346 18.75348 -0.6830341 1.488572 8.583489 -0.4323695 10.69752 -3.348648 1.932467 21.47617 5.3655 2.415866 -16.19152 6.340647 2.007443 -21.39789 12.03735 79.01298 22.67909 -5.679154 -0 0 25.24561 -24.28074 12.28469 13.57215 4.511662 -16.70222 -3.313168 -92.26428 21.53265 23.30287 0 0 -14.44028 -2.146752 5.563025 15.81568
1211.216 94.36302 2754.872 5.216076 -4.409439 43.71887 2.868826 15.98207 6.934214 -0 17.6784 -0 5.271797 -15.45001 -1.443034 2.201258 -27.03811 -2.842101 -0 23.09886 -0 -8.155988 -8.042456 18.55794 -0.3152182 1.117454 9.161544 -1.228072 10.07151 -2.600684 2.257388 21.14727 5.778198 2.148013 -16.46797 7.494343 1.686648 -22.27383 11.70778 78.24661 23.28591 -3.819526 -0 0 27.32596 -26.91661 14.55931 14.52893 4.377804 -15.30858 -3.253515 -93.04948 21.79958 25.8346 0 0 -13.65439 -2.782433 6.203438 16.95885
1217.034 93.51041 2759.117 5.192672 -3.940621 43.34502 1.349271 17.64139 6.76987 -0 24.03936 -0 7.139049 -12.74533 -1.296911 0.8127024 -26.76821 -4.323262 -0 22.10035 -0 -8.191384 -8.123732 18.40249 -0.7524814 0.4988748 9.696698 -1.810271 9.605719 -2.15016 2.639121 21.00018 6.247624 2.099514 -16.94748 8.652758 1.8092 -22.23844 11.21433 78.00886 24.96662 -3.230612 -0 0 27.12633 -29.60159 17.11326 15.31236 4.152396 -14.24217 -3.001119 -93.27367 21.92873 27.34533 0 0 -12.62201 -2.897246 6.903458 17.58534
